<svg width="106" height="20" viewBox="0 0 106 20" fill="none" xmlns="http://www.w3.org/2000/svg">
<g clip-path="url(#clip0_400_389)">
<path d="M36.5342 10.4593V10.2466C36.5342 8.65177 37.5897 7.67711 38.991 7.65936C40.4832 7.65936 41.4842 8.72265 41.4842 10.3175C41.4842 11.9479 40.4288 13.011 38.991 13.011C37.6262 13.0115 36.5342 12.0364 36.5342 10.4593ZM38.9182 5.08994C37.2804 5.08994 36.4469 5.62802 36.0408 5.95933C35.786 6.0302 35.8956 5.50586 35.7406 5.47957C35.7406 5.41162 33.8954 5.67584 33.6224 5.95933V19.603H36.5341L36.5705 15.1551C37.4333 15.4427 38.3362 15.5922 39.2457 15.5981C42.0483 15.5981 44.505 13.8792 44.505 10.4414C44.5051 8.77577 43.3586 5.08983 38.9182 5.08983V5.08994Z" fill="white" fill-opacity="0.95"/>
<path d="M48.6179 10.3526C48.6179 8.82857 49.6916 7.72991 51.1293 7.72991C52.5851 7.72991 53.6588 8.82857 53.6588 10.3526C53.6588 11.8766 52.5847 12.9752 51.1293 12.9752C49.6917 12.9929 48.6179 11.8766 48.6179 10.3526ZM45.6335 10.3526C45.6335 13.117 48.163 15.6156 51.1476 15.6156C54.1322 15.6156 56.6434 13.117 56.6434 10.3526C56.6434 7.60591 54.1321 5.08951 51.1476 5.08951C48.1812 5.08951 45.6335 7.58817 45.6335 10.3526Z" fill="white" fill-opacity="0.95"/>
<path d="M60.647 10.4593V10.2465C60.647 8.65166 61.7024 7.67711 63.1037 7.65936C64.596 7.65936 65.5969 8.72264 65.5969 10.3175C65.5969 11.9478 64.5414 13.011 63.1037 13.011C61.7388 13.011 60.647 12.0364 60.647 10.4593ZM63.031 5.08994C61.3931 5.08994 60.5596 5.62802 60.1537 5.95933C59.8989 6.0302 60.0084 5.50586 59.8534 5.47957C59.8534 5.41162 58.0083 5.67584 57.7354 5.95933V19.6033H60.6471L60.6835 15.1555C61.5462 15.4431 62.4491 15.5927 63.3586 15.5985C66.1612 15.5985 68.618 13.8797 68.618 10.4418C68.6179 8.77588 67.4713 5.08994 63.031 5.08994Z" fill="white" fill-opacity="0.95"/>
<path d="M79.4121 15.6156H82.4605V5.08994H79.4121V15.6156Z" fill="white" fill-opacity="0.95"/>
<path d="M87.5108 10.5514V10.2392C87.5108 8.61152 88.4539 7.73034 89.8551 7.71217C91.3474 7.71217 91.6282 8.92401 91.6282 10.5514V15.6152H87.5108V10.5514ZM89.7825 5.08994C88.1446 5.08994 87.3111 5.63906 86.9052 5.97718C86.6504 6.04946 86.7599 5.51441 86.6049 5.48758C86.6049 5.41822 84.7598 5.68785 84.4868 5.97718V15.6156H94.5023V10.5519C94.5022 8.85151 94.2228 5.08994 89.7825 5.08994Z" fill="white" fill-opacity="0.95"/>
<path d="M106 5.26674H102.413L98.9963 9.12948C98.9963 9.12948 98.9963 1.64821 98.9963 0.998361C98.9963 0.348512 98.9917 0.122699 98.8664 0.0225061C98.8629 -0.0951072 96.3761 0.263683 96.0477 0.612844V15.6155H98.9958V11.6107L102.412 15.6156H105.999L101.653 10.388L106 5.26674Z" fill="white" fill-opacity="0.95"/>
<path d="M80.9364 0C81.8158 0 82.5288 0.442971 82.5288 1.462C82.5288 2.48102 80.9364 3.7342 80.9364 3.7342C80.9364 3.7342 79.344 2.48092 79.344 1.462C79.344 0.443079 80.0569 0 80.9364 0Z" fill="url(#paint0_linear_400_389)"/>
<path d="M71.2608 11.8979L69.7552 13.4984C70.5403 14.903 71.8688 15.5664 74.1101 15.6153C76.3011 15.6153 78.0875 14.8352 78.0823 12.3279C78.1001 9.4478 73.0329 9.32186 73.0329 8.16585C73.0329 7.75685 73.3433 7.38356 74.1467 7.38356C74.9684 7.38356 75.9116 7.72017 76.7382 8.2919L77.5193 6.25222C76.7121 5.55217 75.3336 5.08994 73.7816 5.08994C71.7183 5.08994 70.315 6.26315 70.2716 8.2919C70.2899 10.8166 76.1372 11.6698 74.8006 12.9553C74.101 13.5226 71.978 12.8986 71.2608 11.8979Z" fill="white" fill-opacity="0.95"/>
<path d="M13.452 19.5842C12.3888 19.5775 11.5307 19.0962 11.5307 18.0019C11.5307 16.9095 12.3882 16.4281 13.452 16.4218V3.07544H16.6309V16.4273H18.7005C20.017 16.4273 20.7679 15.3904 20.7679 13.5842V9.79167C20.7717 9.36991 20.9414 8.96685 21.2399 8.67095C21.5384 8.37504 21.9413 8.21043 22.3602 8.21322H27.4528C28.5267 8.21322 29.3973 8.68789 29.3967 9.80685C29.3962 10.9258 28.5263 11.3698 27.4528 11.3698C27.366 11.3698 27.2798 11.3761 23.9509 11.3698V13.5834C23.9509 17.7065 21.2292 19.5837 18.7005 19.5837L13.452 19.5842Z" fill="url(#paint1_linear_400_389)"/>
<path d="M12.5762 4.15558V3.15872H11.3821C10.0687 3.15872 9.3132 4.19581 9.3132 6.00189V9.7922C9.30993 10.2134 9.14088 10.6162 8.84312 10.9121C8.54535 11.208 8.14317 11.3729 7.72481 11.3706C2.11679 11.377 1.99511 11.3706 1.99511 11.3706C1.07495 11.3428 0.00955223 10.8274 0 9.79788C0 8.69576 0.921682 8.21368 1.99511 8.21368H6.13079V6.00189C6.13079 1.87888 8.85339 0 11.3826 0H17.4429C18.5163 0 19.3859 0.478376 19.3859 1.58039C19.3859 2.67333 18.5299 3.15118 17.4682 3.15872V4.15568L12.5762 4.15558Z" fill="url(#paint2_linear_400_389)"/>
</g>
<defs>
<linearGradient id="paint0_linear_400_389" x1="79.7867" y1="0.399559" x2="82.6669" y2="3.00205" gradientUnits="userSpaceOnUse">
<stop stop-color="#6A42C7"/>
<stop offset="1" stop-color="#9667FF"/>
</linearGradient>
<linearGradient id="paint1_linear_400_389" x1="21.5576" y1="12.7297" x2="17.4913" y2="7.56353" gradientUnits="userSpaceOnUse">
<stop stop-color="#6941C6"/>
<stop offset="1" stop-color="#9566FF"/>
</linearGradient>
<linearGradient id="paint2_linear_400_389" x1="8.32905" y1="6.85447" x2="12.6341" y2="16.9637" gradientUnits="userSpaceOnUse">
<stop stop-color="#6941C6"/>
<stop offset="1" stop-color="#968FFF"/>
<stop offset="1" stop-color="#8D63E2"/>
</linearGradient>
<clipPath id="clip0_400_389">
<rect width="106" height="20" fill="white"/>
</clipPath>
</defs>
</svg>
